/* XPM */
static char * xjadeo_color_xpm[] = {
"32 32 466 2",
"  	c None",
". 	c #765738",
"+ 	c #76593B",
"@ 	c #76593A",
"# 	c #775A3B",
"$ 	c #785C3E",
"% 	c #796045",
"& 	c #7A6046",
"* 	c #785D41",
"= 	c #796046",
"- 	c #75593D",
"; 	c #664B2F",
"> 	c #71573B",
", 	c #725232",
"' 	c #714D29",
") 	c #6A4119",
"! 	c #653A0E",
"~ 	c #683B0F",
"{ 	c #683B0E",
"] 	c #693C10",
"^ 	c #6A3C0F",
"/ 	c #693C0F",
"( 	c #6A3D11",
"_ 	c #6A3D10",
": 	c #693A0C",
"< 	c #6A3E11",
"[ 	c #7B6D5D",
"} 	c #67380A",
"| 	c #653404",
"1 	c #5F3914",
"2 	c #5E3915",
"3 	c #5E3813",
"4 	c #5D3610",
"5 	c #5D3710",
"6 	c #5E360E",
"7 	c #5C350E",
"8 	c #593410",
"9 	c #55310F",
"0 	c #553312",
"a 	c #513112",
"b 	c #4F3011",
"c 	c #523211",
"d 	c #543414",
"e 	c #4F3113",
"f 	c #472C12",
"g 	c #482C12",
"h 	c #422910",
"i 	c #422B14",
"j 	c #462D17",
"k 	c #47311D",
"l 	c #4B341E",
"m 	c #613A14",
"n 	c #663300",
"o 	c #644527",
"p 	c #6C451F",
"q 	c #49290A",
"r 	c #670000",
"s 	c #680000",
"t 	c #700000",
"u 	c #710000",
"v 	c #720000",
"w 	c #730000",
"x 	c #007400",
"y 	c #007300",
"z 	c #006F00",
"A 	c #006800",
"B 	c #006B00",
"C 	c #00006D",
"D 	c #000066",
"E 	c #000065",
"F 	c #00006C",
"G 	c #000077",
"H 	c #00007B",
"I 	c #1B1568",
"J 	c #653200",
"K 	c #633000",
"L 	c #633202",
"M 	c #653607",
"N 	c #663607",
"O 	c #644220",
"P 	c #6F4E2B",
"Q 	c #3F250B",
"R 	c #5F0000",
"S 	c #8F0000",
"T 	c #B00000",
"U 	c #B40000",
"V 	c #B50000",
"W 	c #00B500",
"X 	c #00B900",
"Y 	c #00BE00",
"Z 	c #00C000",
"` 	c #00C100",
" .	c #0000C1",
"..	c #0000C2",
"+.	c #0000C7",
"@.	c #0000CB",
"#.	c #0000CC",
"$.	c #1411AE",
"%.	c #653201",
"&.	c #0F0700",
"*.	c #180A00",
"=.	c #120700",
"-.	c #653709",
";.	c #663301",
">.	c #634223",
",.	c #6F4E2C",
"'.	c #41250A",
").	c #740000",
"!.	c #C30000",
"~.	c #EE0000",
"{.	c #F30000",
"].	c #00F400",
"^.	c #00F500",
"/.	c #00F600",
"(.	c #00F700",
"_.	c #0000F7",
":.	c #0000F8",
"<.	c #0000F9",
"[.	c #0000FA",
"}.	c #120FD1",
"|.	c #653301",
"1.	c #643202",
"2.	c #613002",
"3.	c #612E01",
"4.	c #66370A",
"5.	c #604529",
"6.	c #70502E",
"7.	c #452709",
"8.	c #7B0000",
"9.	c #CE0000",
"0.	c #FA0000",
"a.	c #FF0000",
"b.	c #00FF00",
"c.	c #0000FF",
"d.	c #1712CA",
"e.	c #643203",
"f.	c #1C0C00",
"g.	c #0E0600",
"h.	c #5F4A35",
"i.	c #715231",
"j.	c #4C2A0A",
"k.	c #770000",
"l.	c #CA0000",
"m.	c #F90000",
"n.	c #000000",
"o.	c #1E16B5",
"p.	c #643100",
"q.	c #633102",
"r.	c #633204",
"s.	c #663505",
"t.	c #615446",
"u.	c #71502F",
"v.	c #4D2A08",
"w.	c #C50000",
"x.	c #F80000",
"y.	c #2519A7",
"z.	c #271100",
"A.	c #2A1300",
"B.	c #170A00",
"C.	c #643201",
"D.	c #656059",
"E.	c #725231",
"F.	c #562F0A",
"G.	c #6D0000",
"H.	c #C00000",
"I.	c #F70000",
"J.	c #2E1D91",
"K.	c #612E00",
"L.	c #663200",
"M.	c #6B6C6A",
"N.	c #70502D",
"O.	c #562E07",
"P.	c #BA0000",
"Q.	c #F60000",
"R.	c #372278",
"S.	c #643302",
"T.	c #622F01",
"U.	c #66380B",
"V.	c #653403",
"W.	c #6F7575",
"X.	c #583008",
"Y.	c #640000",
"Z.	c #F40000",
"`.	c #42275E",
" +	c #717778",
".+	c #745738",
"++	c #5E340A",
"@+	c #600000",
"#+	c #AE0000",
"$+	c #F20000",
"%+	c #4A2C4A",
"&+	c #72797B",
"*+	c #765A3D",
"=+	c #603307",
"-+	c #5C0000",
";+	c #AB0000",
">+	c #F10000",
",+	c #4F2D43",
"'+	c #5F3710",
")+	c #403830",
"!+	c #533C26",
"~+	c #717879",
"{+	c #775D41",
"]+	c #623305",
"^+	c #5B0303",
"/+	c #A80000",
"(+	c #EF0000",
"_+	c #0000FE",
":+	c #4E2D41",
"<+	c #523B25",
"[+	c #646362",
"}+	c #696867",
"|+	c #693E15",
"1+	c #663402",
"2+	c #707779",
"3+	c #785F44",
"4+	c #643404",
"5+	c #5B0505",
"6+	c #A10000",
"7+	c #ED0000",
"8+	c #FE0000",
"9+	c #502E2F",
"0+	c #64390F",
"a+	c #5E4E3E",
"b+	c #675340",
"c+	c #663503",
"d+	c #727C80",
"e+	c #786147",
"f+	c #5A0606",
"g+	c #9E0000",
"h+	c #EC0000",
"i+	c #583328",
"j+	c #5D360F",
"k+	c #463320",
"l+	c #613D19",
"m+	c #673C13",
"n+	c #677176",
"o+	c #79634B",
"p+	c #633405",
"q+	c #590505",
"r+	c #0101F7",
"s+	c #62360C",
"t+	c #553D26",
"u+	c #4F4C49",
"v+	c #663504",
"w+	c #623D18",
"x+	c #646E73",
"y+	c #7D6A54",
"z+	c #653302",
"A+	c #540D09",
"B+	c #9C0000",
"C+	c #EA0000",
"D+	c #E50303",
"E+	c #E90808",
"F+	c #04E504",
"G+	c #06E706",
"H+	c #0BEC0B",
"I+	c #08E908",
"J+	c #02E702",
"K+	c #00FB00",
"L+	c #00FE00",
"M+	c #110ED1",
"N+	c #673504",
"O+	c #653606",
"P+	c #6A4D31",
"Q+	c #673F18",
"R+	c #604122",
"S+	c #626C71",
"T+	c #82796D",
"U+	c #663C14",
"V+	c #673D15",
"W+	c #6A3F15",
"X+	c #683D13",
"Y+	c #683A0D",
"Z+	c #673A0E",
"`+	c #673B11",
" @	c #683B10",
".@	c #67380B",
"+@	c #693F15",
"@@	c #693F16",
"#@	c #663D16",
"$@	c #67411C",
"%@	c #643F1C",
"&@	c #67411F",
"*@	c #64401E",
"=@	c #66401D",
"-@	c #61380F",
";@	c #62380F",
">@	c #5C3917",
",@	c #5B4128",
"'@	c #633F1C",
")@	c #5D666A",
"!@	c #6F7677",
"~@	c #5D5C57",
"{@	c #595854",
"]@	c #5A5A56",
"^@	c #5A5854",
"/@	c #595955",
"(@	c #5B5C59",
"_@	c #5C5D5A",
":@	c #5B5E5C",
"<@	c #5B5F5F",
"[@	c #5C6162",
"}@	c #5D5F5C",
"|@	c #5C5954",
"1@	c #5A5650",
"2@	c #57534C",
"3@	c #58554E",
"4@	c #5C5E5D",
"5@	c #5D5F5D",
"6@	c #5C5B57",
"7@	c #59534B",
"8@	c #584E41",
"9@	c #56493A",
"0@	c #574939",
"a@	c #564634",
"b@	c #584430",
"c@	c #5A4530",
"d@	c #544A3F",
"e@	c #606A6E",
"f@	c #312E0E",
"g@	c #5C5512",
"h@	c #7A6F1A",
"i@	c #766B18",
"j@	c #7F741C",
"k@	c #736916",
"l@	c #756A17",
"m@	c #675D16",
"n@	c #585321",
"o@	c #68622F",
"p@	c #655F1A",
"q@	c #625710",
"r@	c #372C10",
"s@	c #403B37",
"t@	c #2C2A23",
"u@	c #817F51",
"v@	c #C6C269",
"w@	c #DCD67B",
"x@	c #DDD879",
"y@	c #DCD775",
"z@	c #DDD87E",
"A@	c #DAD672",
"B@	c #C6C26A",
"C@	c #ACA862",
"D@	c #A8A66E",
"E@	c #ADAA73",
"F@	c #BAB654",
"G@	c #887C2A",
"H@	c #4E4531",
"I@	c #52504E",
"J@	c #494949",
"K@	c #4F4F4F",
"L@	c #3C3C3C",
"M@	c #424243",
"N@	c #363636",
"O@	c #434343",
"P@	c #717171",
"Q@	c #5F5B57",
"R@	c #918578",
"S@	c #867B70",
"T@	c #302F2C",
"U@	c #A3A29A",
"V@	c #CFCFC1",
"W@	c #E0E0D1",
"X@	c #E0DFD0",
"Y@	c #DFDFCF",
"Z@	c #E1E0D1",
"`@	c #DADACB",
" #	c #C5C5B7",
".#	c #B4B4A9",
"+#	c #AFAFA7",
"@#	c #B5B5AC",
"##	c #C8C7AF",
"$#	c #929181",
"%#	c #B0AEAA",
"&#	c #B1B1B0",
"*#	c #B3B3B3",
"=#	c #B2B2B2",
"-#	c #838383",
";#	c #8E8E8E",
">#	c #858585",
",#	c #9F9F9F",
"'#	c #656565",
")#	c #5D5D5D",
"!#	c #6B6B6B",
"~#	c #635F58",
"{#	c #73664F",
"]#	c #605440",
"^#	c #383329",
"/#	c #3C3B38",
"(#	c #383837",
"_#	c #41413F",
":#	c #3F3F3D",
"<#	c #3D3D3B",
"[#	c #434440",
"}#	c #3C3C3A",
"|#	c #383836",
"1#	c #40403E",
"2#	c #515150",
"3#	c #4C4C4A",
"4#	c #4B4A42",
"5#	c #555555",
"6#	c #666565",
"7#	c #5F5F5F",
"8#	c #666666",
"9#	c #636363",
"0#	c #626262",
"a#	c #4D4D4D",
"b#	c #4C4C4C",
"c#	c #6C6D6D",
"d#	c #797A7A",
"e#	c #1E1E1E",
"f#	c #262626",
"g#	c #292721",
"h#	c #352E21",
"i#	c #2C271D",
"j#	c #1A170D",
"k#	c #262405",
"l#	c #322E05",
"m#	c #3D3803",
"n#	c #3E3904",
"o#	c #3E3804",
"p#	c #3F3B03",
"q#	c #3D3704",
"r#	c #383304",
"s#	c #3B3811",
"t#	c #524E30",
"u#	c #4B4821",
"v#	c #564A0C",
"w#	c #5C5133",
"x#	c #615A4C",
"y#	c #646464",
"z#	c #565656",
"A#	c #5B5B5B",
"B#	c #424242",
"C#	c #444444",
"D#	c #2D2D2D",
"E#	c #454545",
"F#	c #383838",
"G#	c #131105",
"H#	c #574701",
"I#	c #9B7C00",
"J#	c #A88500",
"K#	c #B08B00",
"L#	c #B58E00",
"M#	c #AA8700",
"N#	c #B89000",
"O#	c #A78300",
"P#	c #8D7105",
"Q#	c #8A7523",
"R#	c #8F7824",
"S#	c #876609",
"T#	c #6A521D",
"U#	c #40351D",
"V#	c #1B1301",
"W#	c #342400",
"X#	c #4F3500",
"Y#	c #503600",
"Z#	c #4B3200",
"`#	c #573A00",
" $	c #473000",
".$	c #4A3200",
"+$	c #3B2B0A",
"@$	c #4A3A18",
"#$	c #30240D",
"$$	c #464034",
"  . + @ # $ % & * = * - ; > , ' ) ! ~ { ~ ] ^ / ( ( / / _ : < [ ",
"} | 1 2 3 4 5 6 7 8 9 0 a b c d e f g h i j k l m n n n n n n o ",
"p q r s t u u v w x y y z A B x x C D E F G H H I J K L M N n O ",
"P Q R S T U V V V W W X Y Z ` ` `  . ...+.@.#.#.$.%.&.*.=.-.;.>.",
",.'.).!.~.{.{.{.{.].].^./.(.(.(.(._.:.:.<.[.[.[.}.|.1.2.3.4.n 5.",
"6.7.8.9.0.a.a.a.a.b.b.b.b.b.b.b.b.c.c.c.c.c.c.c.d.J e.f.g.N n h.",
"i.j.k.l.m.a.a.a.a.b.b.b.b.n.b.b.b.n.n.n.n.c.c.c.o.p.q.r.3.s.n t.",
"u.v.v w.x.a.a.n.a.b.b.b.b.n.b.n.n.n.c.c.c.c.c.c.y.J z.A.B.C.n D.",
"E.F.G.H.I.a.a.n.a.b.b.b.n.b.b.b.b.n.c.c.c.c.c.c.J.J C.q.K.C.L.M.",
"N.O.s P.Q.a.a.a.n.b.b.n.b.b.b.b.b.n.c.c.c.c.c.c.R.n S.T.U.V.n W.",
"E.X.Y.U Z.a.a.a.a.n.n.b.b.b.b.b.b.n.c.c.c.c.c.c.`.n K 3.3.p.n  +",
".+++@+#+$+a.a.a.a.n.n.b.b.b.b.b.b.c.n.c.c.c.c.c.%+n n n n n ;.&+",
"*+=+-+;+>+a.a.a.n.b.b.n.b.b.n.b.b.c.n.c.c.c.c.c.,+n '+)+!+n n ~+",
"{+]+^+/+(+a.a.n.a.b.b.b.n.b.b.n.n.n.c.c.c.c.c._+:+n <+[+}+|+1+2+",
"3+4+5+6+7+8+a.a.a.b.b.b.b.b.b.b.b.c.c.c.c.c.c._+9+n 0+a+b+c+: d+",
"e+4+f+g+h+8+a.a.a.b.b.b.b.b.b.b.b.c.c.c.c.c.c._+i+n j+k+l+n m+n+",
"o+p+q+g+h+8+a.a.a.b.b.b.b.b.b.b.b.c.c.c.c.c.c.r+s+n t+  u+v+w+x+",
"y+z+A+B+C+Z.D+E+E+F+G+H+I+J+J+K+L+_+_+_+c.c.c.M+N+n O+P+Q+n R+S+",
"T+v+} U+V+W+X+Y+Z+`+ @.@Z+X++@@@#@Q+$@%@&@*@=@-@n n ;@>@,@;.'@)@",
"  !@~@{@]@^@/@(@_@_@:@<@[@}@|@1@2@2@3@{@4@5@6@7@8@9@0@a@b@c@d@e@",
"                                                                ",
"                                                                ",
"                                                                ",
"              f@g@h@h@i@j@k@l@m@n@o@p@q@r@                      ",
"        s@  t@u@v@w@x@y@z@A@B@C@D@E@F@G@H@I@J@K@  L@  M@N@      ",
"  O@P@Q@R@S@T@U@V@W@X@Y@Z@`@ #.#+#@###$#%#&#*#=#=#-#;#>#;#,#'#  ",
"  )#!#~#{#]#^#/#(#_#:#<#[#}#|#1#2#3#4#5#6#7#8#9#0#a#b#a#5#!#c#d#",
"  e#f#g#h#i#j#k#l#m#n#o#p#q#r#s#t#u#v#w#x#y#z#A#y#B#C#C#D#E#F#  ",
"            G#H#I#J#K#L#M#N#O#P#Q#R#S#T#U#                      ",
"              V#W#X#Y#Z#`# $X#.$+$@$#$$$                        ",
"                                                                ",
"                                                                "};
