#define osd_brightness_mask_width 24
#define osd_brightness_mask_height 24
static unsigned char osd_brightness_mask_bits[] = {
   0x00, 0x3c, 0x00, 0x00, 0x3c, 0x00, 0x00, 0x3c, 0x00, 0x78, 0x3c, 0x1e,
   0xf8, 0x3c, 0x1f, 0xf8, 0x00, 0x1f, 0xf8, 0x7e, 0x1f, 0xf0, 0xff, 0x0f,
   0x80, 0xff, 0x01, 0xc0, 0xff, 0x03, 0xdf, 0xc3, 0xfb, 0xdf, 0xc3, 0xfb,
   0xdf, 0xc3, 0xfb, 0xdf, 0xc3, 0xfb, 0xc0, 0xff, 0x03, 0x80, 0xff, 0x01,
   0xf0, 0xff, 0x0f, 0xf8, 0x7e, 0x1f, 0xf8, 0x00, 0x1f, 0xf8, 0x3c, 0x1f,
   0x78, 0x3c, 0x1e, 0x00, 0x3c, 0x00, 0x00, 0x3c, 0x00, 0x00, 0x3c, 0x00 };
