#define osd_contrast_mask_width 24
#define osd_contrast_mask_height 24
static unsigned char osd_contrast_mask_bits[] = {
   0x00, 0x00, 0x00, 0x00, 0x7e, 0x00, 0xc0, 0xc3, 0x03, 0x60, 0x00, 0x06,
   0x30, 0x00, 0x0c, 0x18, 0x3c, 0x18, 0x0c, 0xff, 0x30, 0x84, 0xff, 0x21,
   0xc4, 0xff, 0x23, 0xc6, 0xff, 0x63, 0xe2, 0xff, 0x47, 0xe2, 0xff, 0x47,
   0xe2, 0xff, 0x47, 0xe2, 0xff, 0x47, 0xc6, 0xff, 0x63, 0xc4, 0xff, 0x23,
   0x84, 0xff, 0x21, 0x0c, 0xff, 0x30, 0x18, 0x3c, 0x18, 0x30, 0x00, 0x0c,
   0x60, 0x00, 0x06, 0xc0, 0xc3, 0x03, 0x00, 0x7e, 0x00, 0x00, 0x00, 0x00 };
