#define osd_gamma_mask_width 24
#define osd_gamma_mask_height 24
static unsigned char osd_gamma_mask_bits[] = {
   0x04, 0x00, 0x00, 0x0c, 0x00, 0x00, 0x1e, 0x00, 0x00, 0x1e, 0x00, 0x00,
   0x3f, 0x07, 0x00, 0x3e, 0x0f, 0xfe, 0x1c, 0xc7, 0xff, 0x0c, 0xfa, 0x07,
   0x0c, 0xfc, 0x00, 0x0c, 0x3e, 0x00, 0x0c, 0x4f, 0x01, 0x8c, 0x87, 0x03,
   0xcc, 0xc1, 0x03, 0xec, 0x80, 0x03, 0xfc, 0x00, 0x00, 0x7c, 0x00, 0x00,
   0x3c, 0x00, 0x00, 0x3c, 0x00, 0x00, 0x3c, 0x00, 0x00, 0x1c, 0x00, 0x08,
   0x1c, 0x00, 0x38, 0xff, 0xff, 0xff, 0xfe, 0xff, 0xff, 0x1c, 0x00, 0x78 };
