#define osd_hue_mask_width 24
#define osd_hue_mask_height 24
static unsigned char osd_hue_mask_bits[] = {
   0x00, 0x7e, 0x00, 0x80, 0xff, 0x01, 0xc0, 0xff, 0x03, 0xe0, 0xff, 0x07,
   0xe0, 0xff, 0x07, 0xf0, 0xff, 0x0f, 0xf0, 0xff, 0x0f, 0xf0, 0xff, 0x0f,
   0xf8, 0xff, 0x1f, 0xfc, 0xff, 0x3f, 0xfe, 0xe7, 0x6f, 0xfe, 0xc3, 0x47,
   0xff, 0xc3, 0xc7, 0xff, 0x81, 0x83, 0xff, 0xc3, 0x81, 0xff, 0xff, 0x80,
   0xff, 0xff, 0x80, 0xff, 0xff, 0xc0, 0xfe, 0x7f, 0x40, 0xfe, 0x7f, 0x60,
   0xfc, 0x3f, 0x30, 0xf8, 0x3f, 0x1c, 0xe0, 0xe7, 0x07, 0x00, 0x00, 0x00 };
