#define osd_saturation_mask_width 24
#define osd_saturation_mask_height 24
static unsigned char osd_saturation_mask_bits[] = {
   0x00, 0x00, 0x00, 0x00, 0x00, 0x00, 0x00, 0x00, 0x00, 0x00, 0x00, 0x00,
   0x80, 0x03, 0x00, 0x00, 0x01, 0x00, 0x00, 0x01, 0x00, 0xfe, 0xff, 0x7f,
   0x02, 0x01, 0x40, 0xfa, 0xff, 0x5f, 0xfa, 0xff, 0x5f, 0xfa, 0xff, 0x5f,
   0xfa, 0xff, 0x5f, 0xfa, 0xff, 0x5f, 0xfa, 0xff, 0x5f, 0x02, 0x01, 0x40,
   0xfe, 0xff, 0x7f, 0x00, 0x01, 0x00, 0x00, 0x01, 0x00, 0x80, 0x03, 0x00,
   0x00, 0x00, 0x00, 0x00, 0x00, 0x00, 0x00, 0x00, 0x00, 0x00, 0x00, 0x00 };
