/* XPM */
static char * xjadeo_color_xpm[] = {
"32 32 6 1",
" 	c None",
".	c #111111",
"+	c #BA0404",
"@	c #04BA04",
"#	c #0404BA",
"$	c #FFFFFF",
"                                ",
"                                ",
"                                ",
"                                ",
"                                ",
"                                ",
"................................",
"   ....   ....   ....   ....   .",
"   ....   ....   ....   ....   .",
"................................",
"................................",
"..++++++++..@@@@@@@@..########..",
"..++++++++..@@@@@@@@..########..",
".$$$$+$$$+..@@@@@@@@.$########..",
"..$$+++$++..@@@@@@@@.$########..",
"..+$++$+++..@@@@@@@@.$########..",
"..+$$$+++$..@$$@@@@@$.########..",
"..++$+++++.$$$@@@$$$$.##$$$##$$.",
"..+$$+++$+..@$@@$@@@$.$$$$###$.$",
"..$+$$++$+.$$$@@$@@@$.$###$#$#$$",
".$+++$+++$.$@$$@$$$$$.$$$$##$$$.",
"$$$+$$$$+$.$$$@@@@@@..########..",
"..+++++++$..@@@@@@@@..########..",
"..+++++++$..@@@@@@@@..########..",
"........$$......................",
"................................",
"................................",
"                                ",
"                                ",
"                                ",
"                                ",
"                                "};
