/* XPM */
static char * xjadeo8_xpm[] = {
"32 32 252 2",
"  	c None",
". 	c #111111",
"+ 	c #BA0404",
"@ 	c #04BA04",
"# 	c #0404BA",
"$ 	c #C32727",
"% 	c #D56767",
"& 	c #C93B3B",
"* 	c #CF5252",
"= 	c #BE1212",
"- 	c #D77070",
"; 	c #ADE8AD",
"> 	c #EBB8B8",
", 	c #CA3F3F",
"' 	c #BD0F0F",
") 	c #F1CDCD",
"! 	c #C11D1D",
"~ 	c #C11F1F",
"{ 	c #EFC4C4",
"] 	c #07BB07",
"^ 	c #05BA05",
"/ 	c #CCF1CC",
"( 	c #0505BA",
"_ 	c #0606BA",
": 	c #C12020",
"< 	c #F1CECE",
"[ 	c #E5A0A0",
"} 	c #D36060",
"| 	c #202020",
"1 	c #B7B7B7",
"2 	c #ACE8AC",
"3 	c #C0EDC0",
"4 	c #2BC42B",
"5 	c #A9E7A9",
"6 	c #B1E9B1",
"7 	c #98E298",
"8 	c #D1F2D1",
"9 	c #979797",
"0 	c #B2B2E9",
"a 	c #BFBFED",
"b 	c #5555D0",
"c 	c #A2A2E5",
"d 	c #B3B3EA",
"e 	c #C4C4EF",
"f 	c #4040CA",
"g 	c #E09090",
"h 	c #F2CFCF",
"i 	c #16BF16",
"j 	c #4ECE4E",
"k 	c #9AE39A",
"l 	c #52CF52",
"m 	c #8DDF8D",
"n 	c #27C327",
"o 	c #E3F7E3",
"p 	c #555555",
"q 	c #969696",
"r 	c #0808BB",
"s 	c #CCCCF1",
"t 	c #5252CF",
"u 	c #9494E1",
"v 	c #1C1CC0",
"w 	c #CDCDF1",
"x 	c #C22121",
"y 	c #F0CACA",
"z 	c #ECBABA",
"A 	c #CA4141",
"B 	c #2D2D2D",
"C 	c #C3C3C3",
"D 	c #95E295",
"E 	c #97E297",
"F 	c #B4EAB4",
"G 	c #79DA79",
"H 	c #5DD25D",
"I 	c #D3F3D3",
"J 	c #7F7F7F",
"K 	c #C7C7C7",
"L 	c #A3A3E5",
"M 	c #B7B7EB",
"N 	c #8181DC",
"O 	c #6161D3",
"P 	c #DADAF4",
"Q 	c #C93C3C",
"R 	c #BC0C0C",
"S 	c #727272",
"T 	c #6F6F6F",
"U 	c #4CCE4C",
"V 	c #B5EAB5",
"W 	c #59D159",
"X 	c #82DC82",
"Y 	c #1CC01C",
"Z 	c #E2F7E2",
"` 	c #5C5C5C",
" .	c #5858D1",
"..	c #8A8ADF",
"+.	c #1414BE",
"@.	c #D1D1F2",
"#.	c #D56868",
"$.	c #E08E8E",
"%.	c #EEC1C1",
"&.	c #373737",
"*.	c #D0D0D0",
"=.	c #9FE49F",
"-.	c #09BB09",
";.	c #BAECBA",
">.	c #9EE49E",
",.	c #A0E5A0",
"'.	c #A2A2A2",
").	c #AFAFE9",
"!.	c #9D9DE4",
"~.	c #A4A4E6",
"{.	c #C5C5EF",
"].	c #4C4CCE",
"^.	c #CF5151",
"/.	c #171717",
"(.	c #12BE12",
"_.	c #15BE15",
":.	c #0E0EBC",
"<.	c #1717BF",
"[.	c #0707BB",
"}.	c #D15A5A",
"|.	c #E9AFAF",
"1.	c #C32525",
"2.	c #2C2C2C",
"3.	c #2B2B2B",
"4.	c #29292A",
"5.	c #272827",
"6.	c #262627",
"7.	c #252525",
"8.	c #232323",
"9.	c #222221",
"0.	c #212020",
"a.	c #1F1E1F",
"b.	c #1D1D1D",
"c.	c #1B1C1C",
"d.	c #1A1A1A",
"e.	c #181918",
"f.	c #151515",
"g.	c #141414",
"h.	c #131312",
"i.	c #0F100F",
"j.	c #0E0F0E",
"k.	c #0C0C0C",
"l.	c #0B0B0B",
"m.	c #0A090A",
"n.	c #080808",
"o.	c #060707",
"p.	c #050505",
"q.	c #030303",
"r.	c #030202",
"s.	c #010101",
"t.	c #000000",
"u.	c #2D2D2C",
"v.	c #292A2A",
"w.	c #00A000",
"x.	c #232222",
"y.	c #202121",
"z.	c #1F1F1F",
"A.	c #1E1D1D",
"B.	c #1B1B1B",
"C.	c #191919",
"D.	c #151514",
"E.	c #131313",
"F.	c #121111",
"G.	c #101010",
"H.	c #0F0E0F",
"I.	c #0A0A0A",
"J.	c #080909",
"K.	c #2B2C2C",
"L.	c #2A2B2A",
"M.	c #292929",
"N.	c #272727",
"O.	c #262625",
"P.	c #212121",
"Q.	c #201F1F",
"R.	c #181818",
"S.	c #161717",
"T.	c #131314",
"U.	c #121212",
"V.	c #111010",
"W.	c #0D0D0E",
"X.	c #090909",
"Y.	c #070707",
"Z.	c #060606",
"`.	c #040405",
" +	c #020102",
".+	c #2E2D2D",
"++	c #2B2B2A",
"@+	c #282728",
"#+	c #242524",
"$+	c #1E1F1F",
"%+	c #1B1B1C",
"&+	c #181919",
"*+	c #0F1010",
"=+	c #0E0E0E",
"-+	c #0C0D0D",
";+	c #0A0909",
">+	c #030304",
",+	c #020202",
"'+	c #000001",
")+	c #2E2E2E",
"!+	c #2A2A29",
"~+	c #272627",
"{+	c #242525",
"]+	c #232423",
"^+	c #222222",
"/+	c #1C1C1C",
"(+	c #141515",
"_+	c #121112",
":+	c #0B0C0C",
"<+	c #080809",
"[+	c #070706",
"}+	c #030203",
"|+	c #010100",
"1+	c #2E2E2F",
"2+	c #2A2A2A",
"3+	c #262727",
"4+	c #252625",
"5+	c #242424",
"6+	c #212021",
"7+	c #20201F",
"8+	c #151415",
"9+	c #141313",
"0+	c #111212",
"a+	c #111110",
"b+	c #0D0D0D",
"c+	c #0A0A0B",
"d+	c #060506",
"e+	c #020101",
"f+	c #2F2F2F",
"g+	c #2D2E2D",
"h+	c #2C2B2B",
"i+	c #282727",
"j+	c #262626",
"k+	c #212122",
"l+	c #1F201F",
"m+	c #1C1B1B",
"n+	c #121313",
"o+	c #040504",
"p+	c #040304",
"q+	c #010000",
"r+	c #2E2D2E",
"s+	c #2D2C2C",
"t+	c #232424",
"u+	c #1B1A1B",
"v+	c #181718",
"w+	c #161516",
"x+	c #111112",
"y+	c #100F0F",
"z+	c #0D0C0D",
"A+	c #0B0B0C",
"B+	c #030403",
"C+	c #030302",
"                                                                ",
". . . . . . . . . . . . . . . . . . . . . . . . . . . . . . . . ",
"      . . . .       . . . .       . . . .       . . . .       . ",
"      . . . .       . . . .       . . . .       . . . .       . ",
". . . . . . . . . . . . . . . . . . . . . . . . . . . . . . . . ",
". . . . . . . . . . . . . . . . . . . . . . . . . . . . . . . . ",
". . + + + + + + + + . . @ @ @ @ @ @ @ @ . . # # # # # # # # . . ",
". . + + + + + + + + . . @ @ @ @ @ @ @ @ . . # # # # # # # # . . ",
". . + + + + + + + + . . @ @ @ @ @ @ @ @ . . # # # # # # # # . . ",
". . $ % + + & * = - . . @ @ @ @ @ @ @ ; . . # # # # # # # # . . ",
". . + > , ' ) ! ~ { . . ] @ @ @ @ ^ @ / . . ( # # # # _ # # . . ",
". . + : < [ } + ~ { | 1 2 3 4 ^ 5 6 7 8 . 9 0 a b ( c d e f . . ",
". . + + g h + + ~ { . . i j k l m @ n o p q # r s t u # v w . . ",
". . + x y z A + ~ { B C D E F G H @ @ I J K c L M N O # # P . . ",
". . + > Q x ) R ~ { S T @ U V W X @ Y Z ` 9 # # #  ...# +.@.. . ",
". . #.$.+ + % g x %.&.*.E =.V -.;.>.,.I . '.).!.~.r d ~.{.].. . ",
". . + + + + + + ^.[ . /.(.@ @ @ @ _.@ @ . . :.<.# # # +.[.# . . ",
". . + + + + + }.|.1.. . @ @ @ @ @ @ @ @ . . # # # # # # # # . . ",
". . + + + + + + + + . . @ @ @ @ @ @ @ @ . . # # # # # # # # . . ",
". . . . . . . . . . . . . . . . . . . . . . . . . . . . . . . . ",
". . . . . . . . . . . . . . . . . . . . . . . . . . . . . . . . ",
"                                                                ",
"2.3.4.5.6.7.8.9.0.a.b.c.d.e./.f.g.h.. i.j.k.l.m.n.o.p.q.r.s.t.t.",
"u.3.v.w.w.w.w.x.y.z.A.w.B.C.w.w.D.E.F.G.H.w.w.I.J.w.w.w.w.s.t.t.",
"B K.L.M.N.O.w.x.P.Q.w.w.B.w.R.S.w.T.U.V.w.W.k.w.X.Y.Z.`.w. +t.t.",
".+2.++M.@+w.#+8.w.| $+w.%+w.&+/.w.g.w.. *+=+-+w.;+n.o.w.>+,+'+t.",
")+2.++!+w.~+{+]+^+| a.w./+w.C./.w.(+E._+G.=+w.:+I.<+[+p.w.}+|+t.",
"1+B 2.2+w.3+4+5+x.6+7+w./+w.C.R.w.8+9+0+a+w.b+k.c+w.Y.d+w.q.e+t.",
"f+g+h+2+w.i+j+5+w.k+l+w.b.m+w.w./.f.w.n+w.w.w.w.I.;+w.w.o+p+ +q+",
"f+r+s+3.!+@+j+{+t+k+| $+b./+u+&+v+w+g.E.x+y+=+z+A+I.n.[+p.B+C+q+",
"                                                                ",
"                                                                "};
